# xmcd
#
# Track frame offsets:
#	150
#	17380
#	30446
#	39938
#	54068
#	80176
#	95419
#	117889
#	132313
#	148124
#
# Disc length: 2214 seconds
#
# Revision: 0
# Processed by: cddbd v1.5.2PL0 Copyright (c) Steve Scherf et al.
# Submitted via: EasyCDDAExtractor 15.2.5.1
#
DISCID=7508a40a
DTITLE=GRAHAME BOND - MIGHTY GRAHAME BOND
DYEAR=1900
DGENRE=
TTITLE0=WATER WATER
TTITLE1=OH SHINING ONE
TTITLE2=PICTURES IN THE FIRE
TTITLE3=BAROQUE
TTITLE4=SISTERS AND BROTHERS
TTITLE5=STIFFNECKED CHICKEN
TTITLE6=FREAKY BEAK
TTITLE7=WALK ONTO ME
TTITLE8=MAGIC MOJO
TTITLE9=BROTHERS AND SISTERS
EXTD=
EXTT0=
EXTT1=
EXTT2=
EXTT3=
EXTT4=
EXTT5=
EXTT6=
EXTT7=
EXTT8=
EXTT9=
PLAYORDER=
